<mxfile host="Electron" agent="Mozilla/5.0 (Windows NT 10.0; Win64; x64) AppleWebKit/537.36 (KHTML, like Gecko) draw.io/24.7.17 Chrome/128.0.6613.36 Electron/32.0.1 Safari/537.36" version="24.7.17">
  <diagram name="第 1 页" id="e3E_jAcYpOixN6wyQfGJ">
    <mxGraphModel dx="1615" dy="955" grid="1" gridSize="10" guides="1" tooltips="1" connect="1" arrows="1" fold="1" page="1" pageScale="1" pageWidth="827" pageHeight="1169" background="#ffffff" math="0" shadow="0">
      <root>
        <mxCell id="0" />
        <mxCell id="1" parent="0" />
        <mxCell id="Dj7VetEXxRdm_oI4NO1M-143" value="" style="endArrow=classic;html=1;rounded=0;entryX=0.16;entryY=0.508;entryDx=0;entryDy=0;entryPerimeter=0;" edge="1" parent="1">
          <mxGeometry width="50" height="50" relative="1" as="geometry">
            <mxPoint x="1833" y="793.6600000000001" as="sourcePoint" />
            <mxPoint x="1994.0000000000005" y="793.6399999999999" as="targetPoint" />
          </mxGeometry>
        </mxCell>
        <mxCell id="Dj7VetEXxRdm_oI4NO1M-73" value="" style="endArrow=classic;html=1;rounded=0;entryX=0.05;entryY=0.556;entryDx=0;entryDy=0;entryPerimeter=0;endSize=8;exitX=0.62;exitY=0.512;exitDx=0;exitDy=0;exitPerimeter=0;" edge="1" parent="1" source="Dj7VetEXxRdm_oI4NO1M-90">
          <mxGeometry width="50" height="50" relative="1" as="geometry">
            <mxPoint x="1308" y="794.0799999999999" as="sourcePoint" />
            <mxPoint x="1452" y="794.04" as="targetPoint" />
          </mxGeometry>
        </mxCell>
        <mxCell id="Dj7VetEXxRdm_oI4NO1M-70" value="" style="endArrow=classic;html=1;rounded=0;exitX=0.461;exitY=0.937;exitDx=0;exitDy=0;exitPerimeter=0;endSize=8;entryX=0.461;entryY=0.111;entryDx=0;entryDy=0;entryPerimeter=0;" edge="1" parent="1">
          <mxGeometry width="50" height="50" relative="1" as="geometry">
            <mxPoint x="1487.0999999999995" y="710.3299999999999" as="sourcePoint" />
            <mxPoint x="1487.0999999999995" y="753.9899999999998" as="targetPoint" />
          </mxGeometry>
        </mxCell>
        <mxCell id="Dj7VetEXxRdm_oI4NO1M-71" value="" style="endArrow=classic;html=1;rounded=0;exitX=0.5;exitY=0.937;exitDx=0;exitDy=0;exitPerimeter=0;endSize=8;" edge="1" parent="1">
          <mxGeometry width="50" height="50" relative="1" as="geometry">
            <mxPoint x="1038.52" y="831" as="sourcePoint" />
            <mxPoint x="1038.52" y="870" as="targetPoint" />
          </mxGeometry>
        </mxCell>
        <mxCell id="Dj7VetEXxRdm_oI4NO1M-72" value="" style="endArrow=classic;html=1;rounded=0;exitX=0.5;exitY=0.937;exitDx=0;exitDy=0;exitPerimeter=0;endSize=8;" edge="1" parent="1">
          <mxGeometry width="50" height="50" relative="1" as="geometry">
            <mxPoint x="1490.52" y="831" as="sourcePoint" />
            <mxPoint x="1490.52" y="870" as="targetPoint" />
          </mxGeometry>
        </mxCell>
        <mxCell id="Dj7VetEXxRdm_oI4NO1M-74" value="" style="group;fontSize=18;fontFamily=Helvetica;" vertex="1" connectable="0" parent="1">
          <mxGeometry x="880" y="864" width="95" height="90" as="geometry" />
        </mxCell>
        <mxCell id="Dj7VetEXxRdm_oI4NO1M-75" value="" style="endArrow=classic;html=1;rounded=0;" edge="1" parent="Dj7VetEXxRdm_oI4NO1M-74">
          <mxGeometry width="50" height="50" relative="1" as="geometry">
            <mxPoint x="78" y="46.47" as="sourcePoint" />
            <mxPoint x="118" y="46.47" as="targetPoint" />
          </mxGeometry>
        </mxCell>
        <mxCell id="Dj7VetEXxRdm_oI4NO1M-76" value="" style="rounded=0;whiteSpace=wrap;html=1;fillColor=default;fontSize=18;fontFamily=Helvetica;" vertex="1" parent="Dj7VetEXxRdm_oI4NO1M-74">
          <mxGeometry x="5" y="5" width="80" height="80" as="geometry" />
        </mxCell>
        <mxCell id="Dj7VetEXxRdm_oI4NO1M-77" value="15&lt;br style=&quot;font-size: 18px;&quot;&gt;————&lt;br style=&quot;font-size: 18px;&quot;&gt;30" style="text;html=1;align=center;verticalAlign=middle;resizable=0;points=[];autosize=1;strokeColor=none;fillColor=none;fontSize=18;strokeWidth=7;opacity=0;fontFamily=Helvetica;" vertex="1" parent="Dj7VetEXxRdm_oI4NO1M-74">
          <mxGeometry x="-5" y="5" width="100" height="80" as="geometry" />
        </mxCell>
        <mxCell id="Dj7VetEXxRdm_oI4NO1M-78" value="" style="group;fontSize=18;fontFamily=Helvetica;" vertex="1" connectable="0" parent="1">
          <mxGeometry x="993" y="864" width="95" height="90" as="geometry" />
        </mxCell>
        <mxCell id="Dj7VetEXxRdm_oI4NO1M-79" value="" style="rounded=0;whiteSpace=wrap;html=1;fillColor=default;fontSize=18;fontFamily=Helvetica;" vertex="1" parent="Dj7VetEXxRdm_oI4NO1M-78">
          <mxGeometry x="5" y="5" width="80" height="80" as="geometry" />
        </mxCell>
        <mxCell id="Dj7VetEXxRdm_oI4NO1M-80" value="6&lt;br style=&quot;font-size: 18px;&quot;&gt;————&lt;br style=&quot;font-size: 18px;&quot;&gt;40" style="text;html=1;align=center;verticalAlign=middle;resizable=0;points=[];autosize=1;strokeColor=none;fillColor=none;fontSize=18;strokeWidth=7;opacity=0;fontFamily=Helvetica;" vertex="1" parent="Dj7VetEXxRdm_oI4NO1M-78">
          <mxGeometry x="-5" y="5" width="100" height="80" as="geometry" />
        </mxCell>
        <mxCell id="Dj7VetEXxRdm_oI4NO1M-81" value="" style="group;fontSize=18;fontFamily=Helvetica;" vertex="1" connectable="0" parent="1">
          <mxGeometry x="1338" y="864" width="95" height="90" as="geometry" />
        </mxCell>
        <mxCell id="Dj7VetEXxRdm_oI4NO1M-82" value="" style="endArrow=classic;html=1;rounded=0;" edge="1" parent="Dj7VetEXxRdm_oI4NO1M-81">
          <mxGeometry width="50" height="50" relative="1" as="geometry">
            <mxPoint x="73" y="46" as="sourcePoint" />
            <mxPoint x="113" y="46" as="targetPoint" />
          </mxGeometry>
        </mxCell>
        <mxCell id="Dj7VetEXxRdm_oI4NO1M-83" value="" style="rounded=0;whiteSpace=wrap;html=1;fillColor=default;fontSize=18;fontFamily=Helvetica;" vertex="1" parent="Dj7VetEXxRdm_oI4NO1M-81">
          <mxGeometry x="5" y="5" width="80" height="80" as="geometry" />
        </mxCell>
        <mxCell id="Dj7VetEXxRdm_oI4NO1M-84" value="11&lt;br style=&quot;font-size: 18px;&quot;&gt;————&lt;br style=&quot;font-size: 18px;&quot;&gt;50" style="text;html=1;align=center;verticalAlign=middle;resizable=0;points=[];autosize=1;strokeColor=none;fillColor=none;fontSize=18;strokeWidth=7;opacity=0;fontFamily=Helvetica;" vertex="1" parent="Dj7VetEXxRdm_oI4NO1M-81">
          <mxGeometry x="-5" y="5" width="100" height="80" as="geometry" />
        </mxCell>
        <mxCell id="Dj7VetEXxRdm_oI4NO1M-85" value="" style="group;fontSize=18;fontFamily=Helvetica;" vertex="1" connectable="0" parent="1">
          <mxGeometry x="1446" y="864" width="95" height="90" as="geometry" />
        </mxCell>
        <mxCell id="Dj7VetEXxRdm_oI4NO1M-86" value="" style="rounded=0;whiteSpace=wrap;html=1;fillColor=default;fontSize=18;fontFamily=Helvetica;" vertex="1" parent="Dj7VetEXxRdm_oI4NO1M-85">
          <mxGeometry x="5" y="5" width="80" height="80" as="geometry" />
        </mxCell>
        <mxCell id="Dj7VetEXxRdm_oI4NO1M-87" value="12&lt;br style=&quot;font-size: 18px;&quot;&gt;————&lt;br style=&quot;font-size: 18px;&quot;&gt;60" style="text;html=1;align=center;verticalAlign=middle;resizable=0;points=[];autosize=1;strokeColor=none;fillColor=none;fontSize=18;strokeWidth=7;opacity=0;fontFamily=Helvetica;" vertex="1" parent="Dj7VetEXxRdm_oI4NO1M-85">
          <mxGeometry x="-5" y="5" width="100" height="80" as="geometry" />
        </mxCell>
        <mxCell id="Dj7VetEXxRdm_oI4NO1M-88" value="" style="group;fontSize=18;fontFamily=Helvetica;" vertex="1" connectable="0" parent="1">
          <mxGeometry x="993" y="748" width="95" height="90" as="geometry" />
        </mxCell>
        <mxCell id="Dj7VetEXxRdm_oI4NO1M-89" value="" style="rounded=0;whiteSpace=wrap;html=1;fillColor=default;fontSize=18;fontFamily=Helvetica;" vertex="1" parent="Dj7VetEXxRdm_oI4NO1M-88">
          <mxGeometry x="5" y="5" width="80" height="80" as="geometry" />
        </mxCell>
        <mxCell id="Dj7VetEXxRdm_oI4NO1M-90" value="&lt;div&gt;&lt;span style=&quot;text-align: start;&quot;&gt;&lt;font style=&quot;background-color: rgb(251, 251, 251);&quot;&gt;2&lt;/font&gt;&lt;font style=&quot;color: rgb(32, 33, 34); text-wrap: wrap; background-color: rgb(255, 255, 255); font-size: 23px;&quot;&gt;丨&lt;/font&gt;&lt;font style=&quot;color: rgb(32, 33, 34); text-wrap: wrap; background-color: rgb(255, 255, 255); font-size: 18px;&quot;&gt;21&lt;/font&gt;&lt;/span&gt;&lt;/div&gt;————&lt;br&gt;&lt;span style=&quot;text-wrap: wrap; text-align: start; background-color: rgb(255, 255, 255);&quot;&gt;&lt;font color=&quot;#474747&quot;&gt;6&lt;/font&gt;&lt;/span&gt;&lt;span style=&quot;text-wrap: wrap; color: rgb(32, 33, 34); text-align: start; background-color: rgb(255, 255, 255);&quot;&gt;&lt;font style=&quot;font-size: 23px;&quot;&gt;丨&lt;/font&gt;&lt;font style=&quot;font-size: 18px;&quot;&gt;15&lt;/font&gt;&lt;/span&gt;" style="text;html=1;align=center;verticalAlign=middle;resizable=0;points=[];autosize=1;strokeColor=none;fillColor=none;fontSize=18;strokeWidth=7;opacity=0;fontFamily=Helvetica;" vertex="1" parent="Dj7VetEXxRdm_oI4NO1M-88">
          <mxGeometry x="-5" width="100" height="90" as="geometry" />
        </mxCell>
        <mxCell id="Dj7VetEXxRdm_oI4NO1M-91" value="" style="group;fontSize=18;fontFamily=Helvetica;" vertex="1" connectable="0" parent="1">
          <mxGeometry x="1446" y="748" width="95" height="90" as="geometry" />
        </mxCell>
        <mxCell id="Dj7VetEXxRdm_oI4NO1M-92" value="" style="rounded=0;whiteSpace=wrap;html=1;fillColor=default;fontSize=18;fontFamily=Helvetica;" vertex="1" parent="Dj7VetEXxRdm_oI4NO1M-91">
          <mxGeometry x="5" y="5" width="80" height="80" as="geometry" />
        </mxCell>
        <mxCell id="Dj7VetEXxRdm_oI4NO1M-93" value="&lt;div&gt;&lt;span style=&quot;text-align: start;&quot;&gt;&lt;b&gt;&lt;font color=&quot;#ff3333&quot;&gt;&lt;font style=&quot;background-color: rgb(251, 251, 251);&quot;&gt;4&lt;/font&gt;&lt;font style=&quot;text-wrap: wrap; background-color: rgb(255, 255, 255); font-size: 23px;&quot;&gt;丨&lt;/font&gt;&lt;font style=&quot;text-wrap: wrap; background-color: rgb(255, 255, 255); font-size: 18px;&quot;&gt;49&lt;/font&gt;&lt;/font&gt;&lt;/b&gt;&lt;/span&gt;&lt;/div&gt;&lt;b&gt;&lt;font color=&quot;#ff3333&quot;&gt;————&lt;br&gt;&lt;span style=&quot;text-wrap: wrap; text-align: start; background-color: rgb(255, 255, 255);&quot;&gt;8&lt;/span&gt;&lt;span style=&quot;text-wrap: wrap; text-align: start; background-color: rgb(255, 255, 255);&quot;&gt;&lt;font style=&quot;font-size: 23px;&quot;&gt;丨&lt;/font&gt;&lt;font style=&quot;font-size: 18px;&quot;&gt;18&lt;/font&gt;&lt;/span&gt;&lt;/font&gt;&lt;/b&gt;" style="text;html=1;align=center;verticalAlign=middle;resizable=0;points=[];autosize=1;strokeColor=none;fillColor=none;fontSize=18;strokeWidth=7;opacity=0;fontFamily=Helvetica;" vertex="1" parent="Dj7VetEXxRdm_oI4NO1M-91">
          <mxGeometry x="-5" width="100" height="90" as="geometry" />
        </mxCell>
        <mxCell id="Dj7VetEXxRdm_oI4NO1M-94" value="" style="group;fontSize=18;fontFamily=Helvetica;" vertex="1" connectable="0" parent="1">
          <mxGeometry x="1446" y="630" width="95" height="90" as="geometry" />
        </mxCell>
        <mxCell id="Dj7VetEXxRdm_oI4NO1M-95" value="" style="rounded=0;whiteSpace=wrap;html=1;fillColor=default;fontSize=18;fontFamily=Helvetica;" vertex="1" parent="Dj7VetEXxRdm_oI4NO1M-94">
          <mxGeometry x="5" y="5" width="80" height="80" as="geometry" />
        </mxCell>
        <mxCell id="Dj7VetEXxRdm_oI4NO1M-96" value="&lt;div&gt;&lt;span style=&quot;text-align: start;&quot;&gt;&lt;font color=&quot;#ff3333&quot;&gt;&lt;b&gt;6&lt;font style=&quot;text-wrap: wrap; background-color: rgb(255, 255, 255); font-size: 23px;&quot;&gt;丨&lt;/font&gt;&lt;font style=&quot;text-wrap: wrap; background-color: rgb(255, 255, 255);&quot;&gt;70&lt;/font&gt;&lt;/b&gt;&lt;/font&gt;&lt;/span&gt;&lt;/div&gt;&lt;font color=&quot;#ff3333&quot;&gt;&lt;b&gt;————&lt;br&gt;&lt;span style=&quot;text-wrap: wrap; text-align: start; background-color: rgb(255, 255, 255);&quot;&gt;6&lt;/span&gt;&lt;span style=&quot;text-wrap: wrap; text-align: start; background-color: rgb(255, 255, 255);&quot;&gt;&lt;font style=&quot;font-size: 23px;&quot;&gt;丨&lt;/font&gt;18&lt;/span&gt;&lt;/b&gt;&lt;/font&gt;" style="text;html=1;align=center;verticalAlign=middle;resizable=0;points=[];autosize=1;strokeColor=none;fillColor=none;fontSize=18;strokeWidth=7;opacity=0;fontFamily=Helvetica;" vertex="1" parent="Dj7VetEXxRdm_oI4NO1M-94">
          <mxGeometry x="-5" width="100" height="90" as="geometry" />
        </mxCell>
        <mxCell id="Dj7VetEXxRdm_oI4NO1M-97" value="" style="endArrow=classic;html=1;rounded=0;" edge="1" parent="1">
          <mxGeometry width="50" height="50" relative="1" as="geometry">
            <mxPoint x="1078" y="909.47" as="sourcePoint" />
            <mxPoint x="1118" y="909.47" as="targetPoint" />
          </mxGeometry>
        </mxCell>
        <mxCell id="Dj7VetEXxRdm_oI4NO1M-98" value="" style="group;fontSize=18;fontFamily=Helvetica;" vertex="1" connectable="0" parent="1">
          <mxGeometry x="1113" y="864" width="95" height="90" as="geometry" />
        </mxCell>
        <mxCell id="Dj7VetEXxRdm_oI4NO1M-99" value="" style="endArrow=classic;html=1;rounded=0;" edge="1" parent="Dj7VetEXxRdm_oI4NO1M-98">
          <mxGeometry width="50" height="50" relative="1" as="geometry">
            <mxPoint x="79" y="46" as="sourcePoint" />
            <mxPoint x="119" y="46" as="targetPoint" />
          </mxGeometry>
        </mxCell>
        <mxCell id="Dj7VetEXxRdm_oI4NO1M-100" value="" style="rounded=0;whiteSpace=wrap;html=1;fillColor=default;fontSize=18;fontFamily=Helvetica;" vertex="1" parent="Dj7VetEXxRdm_oI4NO1M-98">
          <mxGeometry x="5" y="5" width="80" height="80" as="geometry" />
        </mxCell>
        <mxCell id="Dj7VetEXxRdm_oI4NO1M-101" value="8&lt;br style=&quot;font-size: 18px;&quot;&gt;————&lt;br style=&quot;font-size: 18px;&quot;&gt;45" style="text;html=1;align=center;verticalAlign=middle;resizable=0;points=[];autosize=1;strokeColor=none;fillColor=none;fontSize=18;strokeWidth=7;opacity=0;fontFamily=Helvetica;" vertex="1" parent="Dj7VetEXxRdm_oI4NO1M-98">
          <mxGeometry x="-5" y="5" width="100" height="80" as="geometry" />
        </mxCell>
        <mxCell id="Dj7VetEXxRdm_oI4NO1M-106" value="" style="endArrow=classic;html=1;rounded=0;exitX=0.5;exitY=0.937;exitDx=0;exitDy=0;exitPerimeter=0;endSize=8;" edge="1" parent="1">
          <mxGeometry width="50" height="50" relative="1" as="geometry">
            <mxPoint x="2034.07" y="831" as="sourcePoint" />
            <mxPoint x="2034.07" y="870" as="targetPoint" />
          </mxGeometry>
        </mxCell>
        <mxCell id="Dj7VetEXxRdm_oI4NO1M-107" value="" style="endArrow=classic;html=1;rounded=0;exitX=0.461;exitY=0.937;exitDx=0;exitDy=0;exitPerimeter=0;endSize=8;entryX=0.461;entryY=0.111;entryDx=0;entryDy=0;entryPerimeter=0;" edge="1" parent="1">
          <mxGeometry width="50" height="50" relative="1" as="geometry">
            <mxPoint x="2253.0999999999995" y="710.3299999999999" as="sourcePoint" />
            <mxPoint x="2253.0999999999995" y="753.9899999999998" as="targetPoint" />
          </mxGeometry>
        </mxCell>
        <mxCell id="Dj7VetEXxRdm_oI4NO1M-108" value="" style="endArrow=classic;html=1;rounded=0;exitX=0.5;exitY=0.937;exitDx=0;exitDy=0;exitPerimeter=0;endSize=8;" edge="1" parent="1">
          <mxGeometry width="50" height="50" relative="1" as="geometry">
            <mxPoint x="1798.52" y="831" as="sourcePoint" />
            <mxPoint x="1798.52" y="870" as="targetPoint" />
          </mxGeometry>
        </mxCell>
        <mxCell id="Dj7VetEXxRdm_oI4NO1M-109" value="" style="endArrow=classic;html=1;rounded=0;exitX=0.5;exitY=0.937;exitDx=0;exitDy=0;exitPerimeter=0;endSize=8;" edge="1" parent="1">
          <mxGeometry width="50" height="50" relative="1" as="geometry">
            <mxPoint x="2256.52" y="831" as="sourcePoint" />
            <mxPoint x="2256.52" y="870" as="targetPoint" />
          </mxGeometry>
        </mxCell>
        <mxCell id="Dj7VetEXxRdm_oI4NO1M-110" value="" style="endArrow=classic;html=1;rounded=0;entryX=0.05;entryY=0.556;entryDx=0;entryDy=0;entryPerimeter=0;endSize=8;exitX=0.9;exitY=0.512;exitDx=0;exitDy=0;exitPerimeter=0;" edge="1" parent="1" source="Dj7VetEXxRdm_oI4NO1M-142">
          <mxGeometry width="50" height="50" relative="1" as="geometry">
            <mxPoint x="1944" y="794.0800000000002" as="sourcePoint" />
            <mxPoint x="2218" y="794.04" as="targetPoint" />
          </mxGeometry>
        </mxCell>
        <mxCell id="Dj7VetEXxRdm_oI4NO1M-111" value="" style="group;fontSize=18;fontFamily=Helvetica;" vertex="1" connectable="0" parent="1">
          <mxGeometry x="1640" y="864" width="95" height="90" as="geometry" />
        </mxCell>
        <mxCell id="Dj7VetEXxRdm_oI4NO1M-112" value="" style="endArrow=classic;html=1;rounded=0;" edge="1" parent="Dj7VetEXxRdm_oI4NO1M-111">
          <mxGeometry width="50" height="50" relative="1" as="geometry">
            <mxPoint x="78" y="46.47" as="sourcePoint" />
            <mxPoint x="118" y="46.47" as="targetPoint" />
          </mxGeometry>
        </mxCell>
        <mxCell id="Dj7VetEXxRdm_oI4NO1M-113" value="" style="rounded=0;whiteSpace=wrap;html=1;fillColor=default;fontSize=18;fontFamily=Helvetica;" vertex="1" parent="Dj7VetEXxRdm_oI4NO1M-111">
          <mxGeometry x="5" y="5" width="80" height="80" as="geometry" />
        </mxCell>
        <mxCell id="Dj7VetEXxRdm_oI4NO1M-114" value="15&lt;br style=&quot;font-size: 18px;&quot;&gt;————&lt;br style=&quot;font-size: 18px;&quot;&gt;30" style="text;html=1;align=center;verticalAlign=middle;resizable=0;points=[];autosize=1;strokeColor=none;fillColor=none;fontSize=18;strokeWidth=7;opacity=0;fontFamily=Helvetica;" vertex="1" parent="Dj7VetEXxRdm_oI4NO1M-111">
          <mxGeometry x="-5" y="5" width="100" height="80" as="geometry" />
        </mxCell>
        <mxCell id="Dj7VetEXxRdm_oI4NO1M-115" value="" style="group;fontSize=18;fontFamily=Helvetica;" vertex="1" connectable="0" parent="1">
          <mxGeometry x="1753" y="864" width="95" height="90" as="geometry" />
        </mxCell>
        <mxCell id="Dj7VetEXxRdm_oI4NO1M-116" value="" style="rounded=0;whiteSpace=wrap;html=1;fillColor=default;fontSize=18;fontFamily=Helvetica;" vertex="1" parent="Dj7VetEXxRdm_oI4NO1M-115">
          <mxGeometry x="5" y="5" width="80" height="80" as="geometry" />
        </mxCell>
        <mxCell id="Dj7VetEXxRdm_oI4NO1M-117" value="6&lt;br style=&quot;font-size: 18px;&quot;&gt;————&lt;br style=&quot;font-size: 18px;&quot;&gt;40" style="text;html=1;align=center;verticalAlign=middle;resizable=0;points=[];autosize=1;strokeColor=none;fillColor=none;fontSize=18;strokeWidth=7;opacity=0;fontFamily=Helvetica;" vertex="1" parent="Dj7VetEXxRdm_oI4NO1M-115">
          <mxGeometry x="-5" y="5" width="100" height="80" as="geometry" />
        </mxCell>
        <mxCell id="Dj7VetEXxRdm_oI4NO1M-118" value="" style="group;fontSize=18;fontFamily=Helvetica;" vertex="1" connectable="0" parent="1">
          <mxGeometry x="2104" y="864" width="95" height="90" as="geometry" />
        </mxCell>
        <mxCell id="Dj7VetEXxRdm_oI4NO1M-119" value="" style="endArrow=classic;html=1;rounded=0;" edge="1" parent="Dj7VetEXxRdm_oI4NO1M-118">
          <mxGeometry width="50" height="50" relative="1" as="geometry">
            <mxPoint x="73" y="46" as="sourcePoint" />
            <mxPoint x="113" y="46" as="targetPoint" />
          </mxGeometry>
        </mxCell>
        <mxCell id="Dj7VetEXxRdm_oI4NO1M-120" value="" style="rounded=0;whiteSpace=wrap;html=1;fillColor=default;fontSize=18;fontFamily=Helvetica;" vertex="1" parent="Dj7VetEXxRdm_oI4NO1M-118">
          <mxGeometry x="5" y="5" width="80" height="80" as="geometry" />
        </mxCell>
        <mxCell id="Dj7VetEXxRdm_oI4NO1M-121" value="11&lt;br style=&quot;font-size: 18px;&quot;&gt;————&lt;br style=&quot;font-size: 18px;&quot;&gt;50" style="text;html=1;align=center;verticalAlign=middle;resizable=0;points=[];autosize=1;strokeColor=none;fillColor=none;fontSize=18;strokeWidth=7;opacity=0;fontFamily=Helvetica;" vertex="1" parent="Dj7VetEXxRdm_oI4NO1M-118">
          <mxGeometry x="-5" y="5" width="100" height="80" as="geometry" />
        </mxCell>
        <mxCell id="Dj7VetEXxRdm_oI4NO1M-122" value="" style="group;fontSize=18;fontFamily=Helvetica;" vertex="1" connectable="0" parent="1">
          <mxGeometry x="2212" y="864" width="95" height="90" as="geometry" />
        </mxCell>
        <mxCell id="Dj7VetEXxRdm_oI4NO1M-123" value="" style="rounded=0;whiteSpace=wrap;html=1;fillColor=default;fontSize=18;fontFamily=Helvetica;" vertex="1" parent="Dj7VetEXxRdm_oI4NO1M-122">
          <mxGeometry x="5" y="5" width="80" height="80" as="geometry" />
        </mxCell>
        <mxCell id="Dj7VetEXxRdm_oI4NO1M-124" value="12&lt;br style=&quot;font-size: 18px;&quot;&gt;————&lt;br style=&quot;font-size: 18px;&quot;&gt;60" style="text;html=1;align=center;verticalAlign=middle;resizable=0;points=[];autosize=1;strokeColor=none;fillColor=none;fontSize=18;strokeWidth=7;opacity=0;fontFamily=Helvetica;" vertex="1" parent="Dj7VetEXxRdm_oI4NO1M-122">
          <mxGeometry x="-5" y="5" width="100" height="80" as="geometry" />
        </mxCell>
        <mxCell id="Dj7VetEXxRdm_oI4NO1M-125" value="" style="group;fontSize=18;fontFamily=Helvetica;" vertex="1" connectable="0" parent="1">
          <mxGeometry x="1753" y="748" width="95" height="90" as="geometry" />
        </mxCell>
        <mxCell id="Dj7VetEXxRdm_oI4NO1M-126" value="" style="rounded=0;whiteSpace=wrap;html=1;fillColor=default;fontSize=18;fontFamily=Helvetica;" vertex="1" parent="Dj7VetEXxRdm_oI4NO1M-125">
          <mxGeometry x="5" y="5" width="80" height="80" as="geometry" />
        </mxCell>
        <mxCell id="Dj7VetEXxRdm_oI4NO1M-127" value="&lt;div&gt;&lt;span style=&quot;text-align: start;&quot;&gt;&lt;font style=&quot;background-color: rgb(251, 251, 251);&quot;&gt;2&lt;/font&gt;&lt;font style=&quot;color: rgb(32, 33, 34); text-wrap: wrap; background-color: rgb(255, 255, 255); font-size: 23px;&quot;&gt;丨&lt;/font&gt;&lt;font style=&quot;color: rgb(32, 33, 34); text-wrap: wrap; background-color: rgb(255, 255, 255); font-size: 18px;&quot;&gt;21&lt;/font&gt;&lt;/span&gt;&lt;/div&gt;————&lt;br&gt;&lt;span style=&quot;text-wrap: wrap; text-align: start; background-color: rgb(255, 255, 255);&quot;&gt;&lt;font color=&quot;#474747&quot;&gt;6&lt;/font&gt;&lt;/span&gt;&lt;span style=&quot;text-wrap: wrap; color: rgb(32, 33, 34); text-align: start; background-color: rgb(255, 255, 255);&quot;&gt;&lt;font style=&quot;font-size: 23px;&quot;&gt;丨&lt;/font&gt;&lt;font style=&quot;font-size: 18px;&quot;&gt;15&lt;/font&gt;&lt;/span&gt;" style="text;html=1;align=center;verticalAlign=middle;resizable=0;points=[];autosize=1;strokeColor=none;fillColor=none;fontSize=18;strokeWidth=7;opacity=0;fontFamily=Helvetica;" vertex="1" parent="Dj7VetEXxRdm_oI4NO1M-125">
          <mxGeometry x="-5" width="100" height="90" as="geometry" />
        </mxCell>
        <mxCell id="Dj7VetEXxRdm_oI4NO1M-128" value="" style="group;fontSize=18;fontFamily=Helvetica;" vertex="1" connectable="0" parent="1">
          <mxGeometry x="2212" y="748" width="95" height="90" as="geometry" />
        </mxCell>
        <mxCell id="Dj7VetEXxRdm_oI4NO1M-129" value="" style="rounded=0;whiteSpace=wrap;html=1;fillColor=default;fontSize=18;fontFamily=Helvetica;" vertex="1" parent="Dj7VetEXxRdm_oI4NO1M-128">
          <mxGeometry x="5" y="5" width="80" height="80" as="geometry" />
        </mxCell>
        <mxCell id="Dj7VetEXxRdm_oI4NO1M-130" value="&lt;div&gt;&lt;font color=&quot;#ff3333&quot;&gt;&lt;b&gt;&lt;span style=&quot;text-align: start; background-color: rgb(251, 251, 251);&quot;&gt;2&lt;/span&gt;&lt;span style=&quot;text-wrap: wrap; text-align: start; background-color: rgb(255, 255, 255);&quot;&gt;&lt;font style=&quot;font-size: 23px;&quot;&gt;丨&lt;/font&gt;&lt;font style=&quot;font-size: 18px;&quot;&gt;23&lt;/font&gt;&lt;/span&gt;&lt;/b&gt;&lt;/font&gt;&lt;/div&gt;&lt;font color=&quot;#ff3333&quot;&gt;&lt;b&gt;————&lt;br&gt;&lt;span style=&quot;text-wrap: wrap; text-align: start; background-color: rgb(255, 255, 255);&quot;&gt;11&lt;/span&gt;&lt;span style=&quot;text-wrap: wrap; text-align: start; background-color: rgb(255, 255, 255);&quot;&gt;&lt;font style=&quot;font-size: 23px;&quot;&gt;丨&lt;/font&gt;&lt;font style=&quot;font-size: 18px;&quot;&gt;12&lt;/font&gt;&lt;/span&gt;&lt;/b&gt;&lt;/font&gt;" style="text;html=1;align=center;verticalAlign=middle;resizable=0;points=[];autosize=1;strokeColor=none;fillColor=none;fontSize=18;strokeWidth=7;opacity=0;fontFamily=Helvetica;" vertex="1" parent="Dj7VetEXxRdm_oI4NO1M-128">
          <mxGeometry x="-5" width="100" height="90" as="geometry" />
        </mxCell>
        <mxCell id="Dj7VetEXxRdm_oI4NO1M-131" value="" style="group;fontSize=18;fontFamily=Helvetica;" vertex="1" connectable="0" parent="1">
          <mxGeometry x="2212" y="630" width="95" height="90" as="geometry" />
        </mxCell>
        <mxCell id="Dj7VetEXxRdm_oI4NO1M-132" value="" style="rounded=0;whiteSpace=wrap;html=1;fillColor=default;fontSize=18;fontFamily=Helvetica;" vertex="1" parent="Dj7VetEXxRdm_oI4NO1M-131">
          <mxGeometry x="5" y="5" width="80" height="80" as="geometry" />
        </mxCell>
        <mxCell id="Dj7VetEXxRdm_oI4NO1M-133" value="&lt;div&gt;&lt;span style=&quot;text-align: start;&quot;&gt;&lt;font style=&quot;background-color: rgb(251, 251, 251);&quot;&gt;6&lt;/font&gt;&lt;font style=&quot;text-wrap: wrap; background-color: rgb(255, 255, 255); font-size: 23px;&quot;&gt;丨&lt;/font&gt;&lt;font style=&quot;text-wrap: wrap; background-color: rgb(255, 255, 255); font-size: 18px;&quot;&gt;70&lt;/font&gt;&lt;/span&gt;&lt;/div&gt;————&lt;br&gt;&lt;span style=&quot;text-wrap: wrap; text-align: start; background-color: rgb(255, 255, 255);&quot;&gt;6&lt;/span&gt;&lt;span style=&quot;text-wrap: wrap; text-align: start; background-color: rgb(255, 255, 255);&quot;&gt;&lt;font style=&quot;font-size: 23px;&quot;&gt;丨&lt;/font&gt;&lt;font style=&quot;font-size: 18px;&quot;&gt;18&lt;/font&gt;&lt;/span&gt;" style="text;html=1;align=center;verticalAlign=middle;resizable=0;points=[];autosize=1;strokeColor=none;fillColor=none;fontSize=18;strokeWidth=7;opacity=0;fontFamily=Helvetica;" vertex="1" parent="Dj7VetEXxRdm_oI4NO1M-131">
          <mxGeometry x="-5" width="100" height="90" as="geometry" />
        </mxCell>
        <mxCell id="Dj7VetEXxRdm_oI4NO1M-134" value="" style="shape=flexArrow;endArrow=classic;html=1;rounded=0;fontSize=16;" edge="1" parent="1">
          <mxGeometry width="50" height="50" relative="1" as="geometry">
            <mxPoint x="1550" y="825" as="sourcePoint" />
            <mxPoint x="1636" y="825" as="targetPoint" />
          </mxGeometry>
        </mxCell>
        <mxCell id="Dj7VetEXxRdm_oI4NO1M-135" value="" style="endArrow=classic;html=1;rounded=0;" edge="1" parent="1">
          <mxGeometry width="50" height="50" relative="1" as="geometry">
            <mxPoint x="1838" y="909.47" as="sourcePoint" />
            <mxPoint x="1878" y="909.47" as="targetPoint" />
          </mxGeometry>
        </mxCell>
        <mxCell id="Dj7VetEXxRdm_oI4NO1M-136" value="" style="group;fontSize=18;fontFamily=Helvetica;" vertex="1" connectable="0" parent="1">
          <mxGeometry x="1989" y="864" width="95" height="90" as="geometry" />
        </mxCell>
        <mxCell id="Dj7VetEXxRdm_oI4NO1M-137" value="" style="endArrow=classic;html=1;rounded=0;" edge="1" parent="Dj7VetEXxRdm_oI4NO1M-136">
          <mxGeometry width="50" height="50" relative="1" as="geometry">
            <mxPoint x="79" y="46" as="sourcePoint" />
            <mxPoint x="119" y="46" as="targetPoint" />
          </mxGeometry>
        </mxCell>
        <mxCell id="Dj7VetEXxRdm_oI4NO1M-138" value="" style="rounded=0;whiteSpace=wrap;html=1;fillColor=default;fontSize=18;fontFamily=Helvetica;" vertex="1" parent="Dj7VetEXxRdm_oI4NO1M-136">
          <mxGeometry x="5" y="5" width="80" height="80" as="geometry" />
        </mxCell>
        <mxCell id="Dj7VetEXxRdm_oI4NO1M-139" value="&lt;font color=&quot;#ff3333&quot;&gt;&lt;b&gt;18&lt;br style=&quot;font-size: 18px;&quot;&gt;————&lt;br style=&quot;font-size: 18px;&quot;&gt;48&lt;/b&gt;&lt;/font&gt;" style="text;html=1;align=center;verticalAlign=middle;resizable=0;points=[];autosize=1;strokeColor=none;fillColor=none;fontSize=18;strokeWidth=7;opacity=0;fontFamily=Helvetica;" vertex="1" parent="Dj7VetEXxRdm_oI4NO1M-136">
          <mxGeometry x="-5" y="5" width="100" height="80" as="geometry" />
        </mxCell>
        <mxCell id="Dj7VetEXxRdm_oI4NO1M-140" value="" style="group;fontSize=18;fontFamily=Helvetica;" vertex="1" connectable="0" parent="1">
          <mxGeometry x="1989" y="748" width="95" height="90" as="geometry" />
        </mxCell>
        <mxCell id="Dj7VetEXxRdm_oI4NO1M-141" value="" style="rounded=0;whiteSpace=wrap;html=1;fillColor=default;fontSize=18;fontFamily=Helvetica;" vertex="1" parent="Dj7VetEXxRdm_oI4NO1M-140">
          <mxGeometry x="5" y="5" width="80" height="80" as="geometry" />
        </mxCell>
        <mxCell id="Dj7VetEXxRdm_oI4NO1M-142" value="&lt;div&gt;&lt;span style=&quot;text-align: start;&quot;&gt;&lt;font color=&quot;#ff3333&quot;&gt;&lt;b&gt;&lt;font style=&quot;background-color: rgb(251, 251, 251);&quot;&gt;2&lt;/font&gt;&lt;font style=&quot;text-wrap: wrap; background-color: rgb(255, 255, 255); font-size: 23px;&quot;&gt;丨&lt;/font&gt;&lt;font style=&quot;text-wrap: wrap; background-color: rgb(255, 255, 255); font-size: 18px;&quot;&gt;26&lt;/font&gt;&lt;/b&gt;&lt;/font&gt;&lt;/span&gt;&lt;/div&gt;&lt;font color=&quot;#ff3333&quot;&gt;&lt;b&gt;————&lt;br&gt;&lt;span style=&quot;text-wrap: wrap; text-align: start; background-color: rgb(255, 255, 255);&quot;&gt;8&lt;/span&gt;&lt;span style=&quot;text-wrap: wrap; text-align: start; background-color: rgb(255, 255, 255);&quot;&gt;&lt;font style=&quot;font-size: 23px;&quot;&gt;丨&lt;/font&gt;&lt;font style=&quot;font-size: 18px;&quot;&gt;1&lt;/font&gt;&lt;font style=&quot;font-size: 18px;&quot;&gt;8&lt;/font&gt;&lt;/span&gt;&lt;/b&gt;&lt;/font&gt;" style="text;html=1;align=center;verticalAlign=middle;resizable=0;points=[];autosize=1;strokeColor=none;fillColor=none;fontSize=18;strokeWidth=7;opacity=0;fontFamily=Helvetica;" vertex="1" parent="Dj7VetEXxRdm_oI4NO1M-140">
          <mxGeometry x="-5" width="100" height="90" as="geometry" />
        </mxCell>
        <mxCell id="Dj7VetEXxRdm_oI4NO1M-144" value="" style="group;fontSize=18;fontFamily=Helvetica;" vertex="1" connectable="0" parent="1">
          <mxGeometry x="1873" y="864" width="95" height="90" as="geometry" />
        </mxCell>
        <mxCell id="Dj7VetEXxRdm_oI4NO1M-145" value="" style="endArrow=classic;html=1;rounded=0;" edge="1" parent="Dj7VetEXxRdm_oI4NO1M-144">
          <mxGeometry width="50" height="50" relative="1" as="geometry">
            <mxPoint x="79" y="46" as="sourcePoint" />
            <mxPoint x="119" y="46" as="targetPoint" />
          </mxGeometry>
        </mxCell>
        <mxCell id="Dj7VetEXxRdm_oI4NO1M-146" value="" style="rounded=0;whiteSpace=wrap;html=1;fillColor=default;fontSize=18;fontFamily=Helvetica;" vertex="1" parent="Dj7VetEXxRdm_oI4NO1M-144">
          <mxGeometry x="5" y="5" width="80" height="80" as="geometry" />
        </mxCell>
        <mxCell id="Dj7VetEXxRdm_oI4NO1M-147" value="8&lt;br style=&quot;font-size: 18px;&quot;&gt;————&lt;br style=&quot;font-size: 18px;&quot;&gt;45" style="text;html=1;align=center;verticalAlign=middle;resizable=0;points=[];autosize=1;strokeColor=none;fillColor=none;fontSize=18;strokeWidth=7;opacity=0;fontFamily=Helvetica;" vertex="1" parent="Dj7VetEXxRdm_oI4NO1M-144">
          <mxGeometry x="-5" y="5" width="100" height="80" as="geometry" />
        </mxCell>
        <mxCell id="Dj7VetEXxRdm_oI4NO1M-148" value="" style="group;fontSize=18;fontFamily=Helvetica;" vertex="1" connectable="0" parent="1">
          <mxGeometry x="1225" y="863" width="95" height="90" as="geometry" />
        </mxCell>
        <mxCell id="Dj7VetEXxRdm_oI4NO1M-149" value="" style="endArrow=classic;html=1;rounded=0;" edge="1" parent="Dj7VetEXxRdm_oI4NO1M-148">
          <mxGeometry width="50" height="50" relative="1" as="geometry">
            <mxPoint x="79" y="46" as="sourcePoint" />
            <mxPoint x="119" y="46" as="targetPoint" />
          </mxGeometry>
        </mxCell>
        <mxCell id="Dj7VetEXxRdm_oI4NO1M-150" value="" style="rounded=0;whiteSpace=wrap;html=1;fillColor=default;fontSize=18;fontFamily=Helvetica;" vertex="1" parent="Dj7VetEXxRdm_oI4NO1M-148">
          <mxGeometry x="5" y="5" width="80" height="80" as="geometry" />
        </mxCell>
        <mxCell id="Dj7VetEXxRdm_oI4NO1M-151" value="&lt;font color=&quot;#ff3333&quot;&gt;&lt;b&gt;18&lt;br style=&quot;font-size: 18px;&quot;&gt;————&lt;br style=&quot;font-size: 18px;&quot;&gt;48&lt;/b&gt;&lt;/font&gt;" style="text;html=1;align=center;verticalAlign=middle;resizable=0;points=[];autosize=1;strokeColor=none;fillColor=none;fontSize=18;strokeWidth=7;opacity=0;fontFamily=Helvetica;" vertex="1" parent="Dj7VetEXxRdm_oI4NO1M-148">
          <mxGeometry x="-5" y="5" width="100" height="80" as="geometry" />
        </mxCell>
        <mxCell id="Dj7VetEXxRdm_oI4NO1M-152" value="" style="endArrow=classic;html=1;rounded=0;entryX=0.05;entryY=0.556;entryDx=0;entryDy=0;entryPerimeter=0;endSize=8;" edge="1" parent="1">
          <mxGeometry width="50" height="50" relative="1" as="geometry">
            <mxPoint x="880" y="680" as="sourcePoint" />
            <mxPoint x="1452" y="680.04" as="targetPoint" />
          </mxGeometry>
        </mxCell>
        <mxCell id="Dj7VetEXxRdm_oI4NO1M-153" value="" style="endArrow=classic;html=1;rounded=0;entryX=0.05;entryY=0.556;entryDx=0;entryDy=0;entryPerimeter=0;endSize=8;" edge="1" parent="1">
          <mxGeometry width="50" height="50" relative="1" as="geometry">
            <mxPoint x="880" y="792" as="sourcePoint" />
            <mxPoint x="999" y="792.27" as="targetPoint" />
          </mxGeometry>
        </mxCell>
        <mxCell id="Dj7VetEXxRdm_oI4NO1M-154" value="" style="endArrow=classic;html=1;rounded=0;entryX=0.05;entryY=0.556;entryDx=0;entryDy=0;entryPerimeter=0;endSize=8;" edge="1" parent="1">
          <mxGeometry width="50" height="50" relative="1" as="geometry">
            <mxPoint x="1645" y="677.23" as="sourcePoint" />
            <mxPoint x="2217" y="677.27" as="targetPoint" />
          </mxGeometry>
        </mxCell>
        <mxCell id="Dj7VetEXxRdm_oI4NO1M-155" value="" style="endArrow=classic;html=1;rounded=0;entryX=0.05;entryY=0.556;entryDx=0;entryDy=0;entryPerimeter=0;endSize=8;" edge="1" parent="1">
          <mxGeometry width="50" height="50" relative="1" as="geometry">
            <mxPoint x="1638" y="794" as="sourcePoint" />
            <mxPoint x="1757" y="794.27" as="targetPoint" />
          </mxGeometry>
        </mxCell>
        <mxCell id="Dj7VetEXxRdm_oI4NO1M-156" value="" style="endArrow=classic;html=1;rounded=0;entryX=0.05;entryY=0.556;entryDx=0;entryDy=0;entryPerimeter=0;endSize=8;exitX=0.62;exitY=0.512;exitDx=0;exitDy=0;exitPerimeter=0;" edge="1" parent="1" source="Dj7VetEXxRdm_oI4NO1M-176">
          <mxGeometry width="50" height="50" relative="1" as="geometry">
            <mxPoint x="554" y="794.0799999999999" as="sourcePoint" />
            <mxPoint x="698" y="794.04" as="targetPoint" />
          </mxGeometry>
        </mxCell>
        <mxCell id="Dj7VetEXxRdm_oI4NO1M-157" value="" style="endArrow=classic;html=1;rounded=0;exitX=0.461;exitY=0.937;exitDx=0;exitDy=0;exitPerimeter=0;endSize=8;entryX=0.461;entryY=0.111;entryDx=0;entryDy=0;entryPerimeter=0;" edge="1" parent="1">
          <mxGeometry width="50" height="50" relative="1" as="geometry">
            <mxPoint x="733.0999999999995" y="710.3299999999999" as="sourcePoint" />
            <mxPoint x="733.0999999999995" y="753.9899999999998" as="targetPoint" />
          </mxGeometry>
        </mxCell>
        <mxCell id="Dj7VetEXxRdm_oI4NO1M-158" value="" style="endArrow=classic;html=1;rounded=0;exitX=0.5;exitY=0.937;exitDx=0;exitDy=0;exitPerimeter=0;endSize=8;" edge="1" parent="1">
          <mxGeometry width="50" height="50" relative="1" as="geometry">
            <mxPoint x="395.52" y="831" as="sourcePoint" />
            <mxPoint x="395.52" y="870" as="targetPoint" />
          </mxGeometry>
        </mxCell>
        <mxCell id="Dj7VetEXxRdm_oI4NO1M-159" value="" style="endArrow=classic;html=1;rounded=0;exitX=0.5;exitY=0.937;exitDx=0;exitDy=0;exitPerimeter=0;endSize=8;" edge="1" parent="1">
          <mxGeometry width="50" height="50" relative="1" as="geometry">
            <mxPoint x="736.52" y="831" as="sourcePoint" />
            <mxPoint x="736.52" y="870" as="targetPoint" />
          </mxGeometry>
        </mxCell>
        <mxCell id="Dj7VetEXxRdm_oI4NO1M-160" value="" style="group;fontSize=18;fontFamily=Helvetica;" vertex="1" connectable="0" parent="1">
          <mxGeometry x="237" y="864" width="95" height="90" as="geometry" />
        </mxCell>
        <mxCell id="Dj7VetEXxRdm_oI4NO1M-161" value="" style="endArrow=classic;html=1;rounded=0;" edge="1" parent="Dj7VetEXxRdm_oI4NO1M-160">
          <mxGeometry width="50" height="50" relative="1" as="geometry">
            <mxPoint x="78" y="46.47" as="sourcePoint" />
            <mxPoint x="118" y="46.47" as="targetPoint" />
          </mxGeometry>
        </mxCell>
        <mxCell id="Dj7VetEXxRdm_oI4NO1M-162" value="" style="rounded=0;whiteSpace=wrap;html=1;fillColor=default;fontSize=18;fontFamily=Helvetica;" vertex="1" parent="Dj7VetEXxRdm_oI4NO1M-160">
          <mxGeometry x="5" y="5" width="80" height="80" as="geometry" />
        </mxCell>
        <mxCell id="Dj7VetEXxRdm_oI4NO1M-163" value="15&lt;br style=&quot;font-size: 18px;&quot;&gt;————&lt;br style=&quot;font-size: 18px;&quot;&gt;30" style="text;html=1;align=center;verticalAlign=middle;resizable=0;points=[];autosize=1;strokeColor=none;fillColor=none;fontSize=18;strokeWidth=7;opacity=0;fontFamily=Helvetica;" vertex="1" parent="Dj7VetEXxRdm_oI4NO1M-160">
          <mxGeometry x="-5" y="5" width="100" height="80" as="geometry" />
        </mxCell>
        <mxCell id="Dj7VetEXxRdm_oI4NO1M-164" value="" style="group;fontSize=18;fontFamily=Helvetica;" vertex="1" connectable="0" parent="1">
          <mxGeometry x="350" y="864" width="95" height="90" as="geometry" />
        </mxCell>
        <mxCell id="Dj7VetEXxRdm_oI4NO1M-165" value="" style="rounded=0;whiteSpace=wrap;html=1;fillColor=default;fontSize=18;fontFamily=Helvetica;" vertex="1" parent="Dj7VetEXxRdm_oI4NO1M-164">
          <mxGeometry x="5" y="5" width="80" height="80" as="geometry" />
        </mxCell>
        <mxCell id="Dj7VetEXxRdm_oI4NO1M-166" value="6&lt;br style=&quot;font-size: 18px;&quot;&gt;————&lt;br style=&quot;font-size: 18px;&quot;&gt;40" style="text;html=1;align=center;verticalAlign=middle;resizable=0;points=[];autosize=1;strokeColor=none;fillColor=none;fontSize=18;strokeWidth=7;opacity=0;fontFamily=Helvetica;" vertex="1" parent="Dj7VetEXxRdm_oI4NO1M-164">
          <mxGeometry x="-5" y="5" width="100" height="80" as="geometry" />
        </mxCell>
        <mxCell id="Dj7VetEXxRdm_oI4NO1M-167" value="" style="group;fontSize=18;fontFamily=Helvetica;" vertex="1" connectable="0" parent="1">
          <mxGeometry x="584" y="864" width="95" height="90" as="geometry" />
        </mxCell>
        <mxCell id="Dj7VetEXxRdm_oI4NO1M-168" value="" style="endArrow=classic;html=1;rounded=0;" edge="1" parent="Dj7VetEXxRdm_oI4NO1M-167">
          <mxGeometry width="50" height="50" relative="1" as="geometry">
            <mxPoint x="73" y="46" as="sourcePoint" />
            <mxPoint x="113" y="46" as="targetPoint" />
          </mxGeometry>
        </mxCell>
        <mxCell id="Dj7VetEXxRdm_oI4NO1M-169" value="" style="rounded=0;whiteSpace=wrap;html=1;fillColor=default;fontSize=18;fontFamily=Helvetica;" vertex="1" parent="Dj7VetEXxRdm_oI4NO1M-167">
          <mxGeometry x="5" y="5" width="80" height="80" as="geometry" />
        </mxCell>
        <mxCell id="Dj7VetEXxRdm_oI4NO1M-170" value="11&lt;br style=&quot;font-size: 18px;&quot;&gt;————&lt;br style=&quot;font-size: 18px;&quot;&gt;50" style="text;html=1;align=center;verticalAlign=middle;resizable=0;points=[];autosize=1;strokeColor=none;fillColor=none;fontSize=18;strokeWidth=7;opacity=0;fontFamily=Helvetica;" vertex="1" parent="Dj7VetEXxRdm_oI4NO1M-167">
          <mxGeometry x="-5" y="5" width="100" height="80" as="geometry" />
        </mxCell>
        <mxCell id="Dj7VetEXxRdm_oI4NO1M-171" value="" style="group;fontSize=18;fontFamily=Helvetica;" vertex="1" connectable="0" parent="1">
          <mxGeometry x="692" y="864" width="95" height="90" as="geometry" />
        </mxCell>
        <mxCell id="Dj7VetEXxRdm_oI4NO1M-172" value="" style="rounded=0;whiteSpace=wrap;html=1;fillColor=default;fontSize=18;fontFamily=Helvetica;" vertex="1" parent="Dj7VetEXxRdm_oI4NO1M-171">
          <mxGeometry x="5" y="5" width="80" height="80" as="geometry" />
        </mxCell>
        <mxCell id="Dj7VetEXxRdm_oI4NO1M-173" value="12&lt;br style=&quot;font-size: 18px;&quot;&gt;————&lt;br style=&quot;font-size: 18px;&quot;&gt;60" style="text;html=1;align=center;verticalAlign=middle;resizable=0;points=[];autosize=1;strokeColor=none;fillColor=none;fontSize=18;strokeWidth=7;opacity=0;fontFamily=Helvetica;" vertex="1" parent="Dj7VetEXxRdm_oI4NO1M-171">
          <mxGeometry x="-5" y="5" width="100" height="80" as="geometry" />
        </mxCell>
        <mxCell id="Dj7VetEXxRdm_oI4NO1M-174" value="" style="group;fontSize=18;fontFamily=Helvetica;" vertex="1" connectable="0" parent="1">
          <mxGeometry x="350" y="748" width="95" height="90" as="geometry" />
        </mxCell>
        <mxCell id="Dj7VetEXxRdm_oI4NO1M-175" value="" style="rounded=0;whiteSpace=wrap;html=1;fillColor=default;fontSize=18;fontFamily=Helvetica;" vertex="1" parent="Dj7VetEXxRdm_oI4NO1M-174">
          <mxGeometry x="5" y="5" width="80" height="80" as="geometry" />
        </mxCell>
        <mxCell id="Dj7VetEXxRdm_oI4NO1M-176" value="&lt;div&gt;&lt;span style=&quot;text-align: start;&quot;&gt;&lt;font style=&quot;background-color: rgb(251, 251, 251);&quot;&gt;2&lt;/font&gt;&lt;font style=&quot;color: rgb(32, 33, 34); text-wrap: wrap; background-color: rgb(255, 255, 255); font-size: 23px;&quot;&gt;丨&lt;/font&gt;&lt;font style=&quot;color: rgb(32, 33, 34); text-wrap: wrap; background-color: rgb(255, 255, 255); font-size: 18px;&quot;&gt;21&lt;/font&gt;&lt;/span&gt;&lt;/div&gt;————&lt;br&gt;&lt;span style=&quot;text-wrap: wrap; text-align: start; background-color: rgb(255, 255, 255);&quot;&gt;&lt;font color=&quot;#474747&quot;&gt;6&lt;/font&gt;&lt;/span&gt;&lt;span style=&quot;text-wrap: wrap; color: rgb(32, 33, 34); text-align: start; background-color: rgb(255, 255, 255);&quot;&gt;&lt;font style=&quot;font-size: 23px;&quot;&gt;丨&lt;/font&gt;&lt;font style=&quot;font-size: 18px;&quot;&gt;15&lt;/font&gt;&lt;/span&gt;" style="text;html=1;align=center;verticalAlign=middle;resizable=0;points=[];autosize=1;strokeColor=none;fillColor=none;fontSize=18;strokeWidth=7;opacity=0;fontFamily=Helvetica;" vertex="1" parent="Dj7VetEXxRdm_oI4NO1M-174">
          <mxGeometry x="-5" width="100" height="90" as="geometry" />
        </mxCell>
        <mxCell id="Dj7VetEXxRdm_oI4NO1M-177" value="" style="group;fontSize=18;fontFamily=Helvetica;" vertex="1" connectable="0" parent="1">
          <mxGeometry x="692" y="748" width="95" height="90" as="geometry" />
        </mxCell>
        <mxCell id="Dj7VetEXxRdm_oI4NO1M-178" value="" style="rounded=0;whiteSpace=wrap;html=1;fillColor=default;fontSize=18;fontFamily=Helvetica;" vertex="1" parent="Dj7VetEXxRdm_oI4NO1M-177">
          <mxGeometry x="5" y="5" width="80" height="80" as="geometry" />
        </mxCell>
        <mxCell id="Dj7VetEXxRdm_oI4NO1M-179" value="&lt;div&gt;&lt;span style=&quot;text-align: start;&quot;&gt;&lt;font style=&quot;background-color: rgb(251, 251, 251);&quot;&gt;3&lt;/font&gt;&lt;font style=&quot;text-wrap: wrap; background-color: rgb(255, 255, 255); font-size: 23px;&quot;&gt;丨&lt;/font&gt;&lt;font style=&quot;text-wrap: wrap; background-color: rgb(255, 255, 255); font-size: 18px;&quot;&gt;31&lt;/font&gt;&lt;/span&gt;&lt;/div&gt;————&lt;br&gt;&lt;span style=&quot;text-wrap: wrap; text-align: start; background-color: rgb(255, 255, 255);&quot;&gt;8&lt;/span&gt;&lt;span style=&quot;text-wrap: wrap; text-align: start; background-color: rgb(255, 255, 255);&quot;&gt;&lt;font style=&quot;font-size: 23px;&quot;&gt;丨&lt;/font&gt;&lt;font style=&quot;font-size: 18px;&quot;&gt;12&lt;/font&gt;&lt;/span&gt;" style="text;html=1;align=center;verticalAlign=middle;resizable=0;points=[];autosize=1;strokeColor=none;fillColor=none;fontSize=18;strokeWidth=7;opacity=0;fontFamily=Helvetica;" vertex="1" parent="Dj7VetEXxRdm_oI4NO1M-177">
          <mxGeometry x="-5" width="100" height="90" as="geometry" />
        </mxCell>
        <mxCell id="Dj7VetEXxRdm_oI4NO1M-180" value="" style="group;fontSize=18;fontFamily=Helvetica;" vertex="1" connectable="0" parent="1">
          <mxGeometry x="692" y="630" width="95" height="90" as="geometry" />
        </mxCell>
        <mxCell id="Dj7VetEXxRdm_oI4NO1M-181" value="" style="rounded=0;whiteSpace=wrap;html=1;fillColor=default;fontSize=18;fontFamily=Helvetica;" vertex="1" parent="Dj7VetEXxRdm_oI4NO1M-180">
          <mxGeometry x="5" y="5" width="80" height="80" as="geometry" />
        </mxCell>
        <mxCell id="Dj7VetEXxRdm_oI4NO1M-182" value="&lt;div&gt;&lt;span style=&quot;text-align: start;&quot;&gt;&lt;font style=&quot;background-color: rgb(251, 251, 251);&quot;&gt;5&lt;/font&gt;&lt;font style=&quot;text-wrap: wrap; background-color: rgb(255, 255, 255); font-size: 23px;&quot;&gt;丨&lt;/font&gt;&lt;font style=&quot;text-wrap: wrap; background-color: rgb(255, 255, 255);&quot;&gt;52&lt;/font&gt;&lt;/span&gt;&lt;/div&gt;————&lt;br&gt;&lt;span style=&quot;text-wrap: wrap; text-align: start; background-color: rgb(255, 255, 255);&quot;&gt;6&lt;/span&gt;&lt;span style=&quot;text-wrap: wrap; text-align: start; background-color: rgb(255, 255, 255);&quot;&gt;&lt;font style=&quot;font-size: 23px;&quot;&gt;丨&lt;/font&gt;15&lt;/span&gt;" style="text;html=1;align=center;verticalAlign=middle;resizable=0;points=[];autosize=1;strokeColor=none;fillColor=none;fontSize=18;strokeWidth=7;opacity=0;fontFamily=Helvetica;" vertex="1" parent="Dj7VetEXxRdm_oI4NO1M-180">
          <mxGeometry x="-5" width="100" height="90" as="geometry" />
        </mxCell>
        <mxCell id="Dj7VetEXxRdm_oI4NO1M-183" value="" style="endArrow=classic;html=1;rounded=0;" edge="1" parent="1">
          <mxGeometry width="50" height="50" relative="1" as="geometry">
            <mxPoint x="435" y="909.47" as="sourcePoint" />
            <mxPoint x="475" y="909.47" as="targetPoint" />
          </mxGeometry>
        </mxCell>
        <mxCell id="Dj7VetEXxRdm_oI4NO1M-184" value="" style="group;fontSize=18;fontFamily=Helvetica;" vertex="1" connectable="0" parent="1">
          <mxGeometry x="470" y="864" width="95" height="90" as="geometry" />
        </mxCell>
        <mxCell id="Dj7VetEXxRdm_oI4NO1M-185" value="" style="endArrow=classic;html=1;rounded=0;" edge="1" parent="Dj7VetEXxRdm_oI4NO1M-184">
          <mxGeometry width="50" height="50" relative="1" as="geometry">
            <mxPoint x="79" y="46" as="sourcePoint" />
            <mxPoint x="119" y="46" as="targetPoint" />
          </mxGeometry>
        </mxCell>
        <mxCell id="Dj7VetEXxRdm_oI4NO1M-186" value="" style="rounded=0;whiteSpace=wrap;html=1;fillColor=default;fontSize=18;fontFamily=Helvetica;" vertex="1" parent="Dj7VetEXxRdm_oI4NO1M-184">
          <mxGeometry x="5" y="5" width="80" height="80" as="geometry" />
        </mxCell>
        <mxCell id="Dj7VetEXxRdm_oI4NO1M-187" value="8&lt;br style=&quot;font-size: 18px;&quot;&gt;————&lt;br style=&quot;font-size: 18px;&quot;&gt;45" style="text;html=1;align=center;verticalAlign=middle;resizable=0;points=[];autosize=1;strokeColor=none;fillColor=none;fontSize=18;strokeWidth=7;opacity=0;fontFamily=Helvetica;" vertex="1" parent="Dj7VetEXxRdm_oI4NO1M-184">
          <mxGeometry x="-5" y="5" width="100" height="80" as="geometry" />
        </mxCell>
        <mxCell id="Dj7VetEXxRdm_oI4NO1M-192" value="" style="endArrow=classic;html=1;rounded=0;entryX=0.05;entryY=0.556;entryDx=0;entryDy=0;entryPerimeter=0;endSize=8;" edge="1" parent="1">
          <mxGeometry width="50" height="50" relative="1" as="geometry">
            <mxPoint x="240" y="680" as="sourcePoint" />
            <mxPoint x="698" y="680.04" as="targetPoint" />
          </mxGeometry>
        </mxCell>
        <mxCell id="Dj7VetEXxRdm_oI4NO1M-193" value="" style="endArrow=classic;html=1;rounded=0;entryX=0.05;entryY=0.556;entryDx=0;entryDy=0;entryPerimeter=0;endSize=8;" edge="1" parent="1">
          <mxGeometry width="50" height="50" relative="1" as="geometry">
            <mxPoint x="237" y="792" as="sourcePoint" />
            <mxPoint x="356" y="792.27" as="targetPoint" />
          </mxGeometry>
        </mxCell>
        <mxCell id="Dj7VetEXxRdm_oI4NO1M-194" value="" style="shape=flexArrow;endArrow=classic;html=1;rounded=0;fontSize=16;" edge="1" parent="1">
          <mxGeometry width="50" height="50" relative="1" as="geometry">
            <mxPoint x="786" y="820" as="sourcePoint" />
            <mxPoint x="872" y="820" as="targetPoint" />
          </mxGeometry>
        </mxCell>
      </root>
    </mxGraphModel>
  </diagram>
</mxfile>
